<svg id="Grupo_12" data-name="Grupo 12" xmlns="http://www.w3.org/2000/svg" width="57.743" height="78.194" viewBox="0 0 57.743 78.194">
  <path id="Trazado_15" data-name="Trazado 15" d="M16.16,13.6,30.616,8.435A10.706,10.706,0,0,1,37.6,8.361c5.75,1.917,17.749,5.917,22.854,7.617a2.908,2.908,0,0,1,1.5,4.376l-.187.284A3.875,3.875,0,0,1,57.6,22.248L44.573,18.99v1.9a3.232,3.232,0,0,1-3.231,3.231H30.663l-1.434,2.87a4.6,4.6,0,0,1-4.115,2.544H16.16v1.708a.994.994,0,0,1-1,1H5.7a.994.994,0,0,1-1-1V12.3a1,1,0,0,1,1-1h9.469a1,1,0,0,1,1,1Zm0,13.947V15.712l15.127-5.4a8.711,8.711,0,0,1,5.68-.062l22.854,7.62a.92.92,0,0,1,.475,1.384l-.187.284a1.885,1.885,0,0,1-2.026.782L43.84,16.755a.924.924,0,0,0-.144-.027h0a.809.809,0,0,0-.134,0H30.047a1,1,0,1,0,0,1.991H42.581v2.178a1.24,1.24,0,0,1-1.24,1.24H30.047a1,1,0,0,0-.891.553L27.448,26.1a2.614,2.614,0,0,1-2.335,1.444ZM14.169,15.032V30.251H6.691V13.3h7.477ZM43.524,61.581A16.927,16.927,0,1,1,60.451,44.654,16.935,16.935,0,0,1,43.524,61.581Zm0-1.991A14.936,14.936,0,1,0,28.589,44.654,14.944,14.944,0,0,0,43.524,59.589ZM36.659,47.616h-2.1a1,1,0,0,1,0-1.991h1.675a9.986,9.986,0,0,1,0-1.942H34.563a1,1,0,0,1,0-1.991h2.1A9.519,9.519,0,0,1,50.1,36.211a.995.995,0,1,1-.919,1.765,7.53,7.53,0,0,0-10.395,3.716h4.954a1,1,0,1,1,0,1.991h-5.5a7.6,7.6,0,0,0,0,1.942h5.5a1,1,0,1,1,0,1.991H38.788a7.53,7.53,0,0,0,10.395,3.716A.995.995,0,1,1,50.1,53.1a9.519,9.519,0,0,1-13.442-5.481Z" transform="translate(-4.7 -7.812)" fill="#eb2a82" fill-rule="evenodd"/>
  <path id="Trazado_14" data-name="Trazado 14" d="M50.983,72.5,36.528,77.661a10.706,10.706,0,0,1-6.982.075C23.8,75.819,11.8,71.819,6.692,70.119a2.908,2.908,0,0,1-1.5-4.376l.187-.284a3.875,3.875,0,0,1,4.165-1.611L22.57,67.107v-1.9A3.232,3.232,0,0,1,25.8,61.977H36.48l1.434-2.87a4.6,4.6,0,0,1,4.115-2.544h8.954V54.855a.994.994,0,0,1,1-1h9.469a.994.994,0,0,1,1,1V73.8a1,1,0,0,1-1,1H51.979a1,1,0,0,1-1-1Zm0-13.947V70.385l-15.127,5.4a8.711,8.711,0,0,1-5.68.062L7.322,68.229a.92.92,0,0,1-.475-1.384l.187-.284a1.885,1.885,0,0,1,2.026-.782L23.3,69.342a.925.925,0,0,0,.144.027h0a.809.809,0,0,0,.134,0H37.1a1,1,0,1,0,0-1.991H24.563V65.2a1.24,1.24,0,0,1,1.24-1.24H37.1a1,1,0,0,0,.891-.553l1.708-3.418a2.614,2.614,0,0,1,2.335-1.444Zm1.991,12.514V55.845h7.477v16.95H52.974Z" transform="translate(-4.7 -0.09)" fill="#eb2a82" fill-rule="evenodd"/>
</svg>
