<svg id="noun-euro-6892307" xmlns="http://www.w3.org/2000/svg" width="67.757" height="63.094" viewBox="0 0 67.757 63.094">
  <path id="Trazado_14" data-name="Trazado 14" d="M18.148,64.116,35.11,70.174a12.562,12.562,0,0,0,8.193.088c6.747-2.249,20.827-6.943,26.817-8.938a3.412,3.412,0,0,0,1.761-5.135l-.219-.333a4.547,4.547,0,0,0-4.887-1.89L51.488,57.79V55.561A3.793,3.793,0,0,0,47.7,51.77H35.165L33.483,48.4a5.4,5.4,0,0,0-4.828-2.985H18.148v-2a1.166,1.166,0,0,0-1.168-1.168H5.868A1.166,1.166,0,0,0,4.7,43.413V65.639a1.168,1.168,0,0,0,1.168,1.168H16.979a1.168,1.168,0,0,0,1.168-1.168Zm0-16.366V61.636L35.9,67.974a10.222,10.222,0,0,0,6.666.073l26.817-8.941a1.079,1.079,0,0,0,.558-1.624l-.219-.333a2.212,2.212,0,0,0-2.378-.917l-16.714,4.18a1.086,1.086,0,0,1-.169.032h-.006a.95.95,0,0,1-.158.006H34.443a1.168,1.168,0,0,1,0-2.337H49.15V55.557A1.455,1.455,0,0,0,47.7,54.1H34.443a1.172,1.172,0,0,1-1.046-.648l-2-4.01a3.067,3.067,0,0,0-2.74-1.694ZM15.811,62.434V44.575H7.037V64.464h8.774ZM50.257,7.812A19.862,19.862,0,1,0,70.12,27.674,19.871,19.871,0,0,0,50.257,7.812Zm0,2.337A17.526,17.526,0,1,1,32.731,27.675,17.536,17.536,0,0,1,50.257,10.149ZM42.2,24.2H39.742a1.168,1.168,0,1,0,0,2.337h1.966a11.717,11.717,0,0,0,0,2.278H39.742a1.168,1.168,0,1,0,0,2.337H42.2a11.17,11.17,0,0,0,15.773,6.432A1.167,1.167,0,1,0,56.9,35.511,8.836,8.836,0,0,1,44.7,31.15h5.813a1.168,1.168,0,0,0,0-2.337H44.06a8.921,8.921,0,0,1,0-2.278h6.452a1.168,1.168,0,0,0,0-2.337H44.7a8.836,8.836,0,0,1,12.2-4.361,1.167,1.167,0,1,0,1.078-2.071A11.17,11.17,0,0,0,42.2,24.2Z" transform="translate(-4.7 -7.812)" fill="#eb2a82" fill-rule="evenodd"/>
</svg>
