<svg xmlns="http://www.w3.org/2000/svg" width="156" height="156" viewBox="0 0 156 156">
  <g id="Grupo_77" data-name="Grupo 77" transform="translate(0.462)">
    <rect id="Rectángulo_15" data-name="Rectángulo 15" width="156" height="156" rx="25" transform="translate(-0.462)" fill="#707070" opacity="0.104"/>
    <g id="Grupo_21" data-name="Grupo 21" transform="translate(24.582 25.044)" opacity="0.433">
      <g id="Grupo_1" data-name="Grupo 1" transform="translate(0)">
        <path id="Trazado_1" data-name="Trazado 1" d="M109.857,51a2.22,2.22,0,0,1-.743-2.525A14.549,14.549,0,0,0,97.6,28.719a1.976,1.976,0,0,1-1.67-1.67A14.549,14.549,0,0,0,76.177,15.537a2.215,2.215,0,0,1-2.525-.743,14.545,14.545,0,0,0-22.657,0,2.22,2.22,0,0,1-2.525.743A14.549,14.549,0,0,0,28.715,27.049a1.976,1.976,0,0,1-1.67,1.67A14.549,14.549,0,0,0,15.533,48.474,2.215,2.215,0,0,1,14.79,51a14.545,14.545,0,0,0,0,22.657,2.22,2.22,0,0,1,.743,2.525A14.549,14.549,0,0,0,27.045,95.936a1.976,1.976,0,0,1,1.67,1.67,14.549,14.549,0,0,0,19.755,11.512,2.222,2.222,0,0,1,2.525.743,14.545,14.545,0,0,0,22.657,0,2.213,2.213,0,0,1,2.525-.743A14.549,14.549,0,0,0,95.932,97.606a1.976,1.976,0,0,1,1.67-1.67,14.549,14.549,0,0,0,11.512-19.755,2.215,2.215,0,0,1,.743-2.525,14.545,14.545,0,0,0,0-22.657Zm-2,20.182a5.388,5.388,0,0,0-1.706,6.166,11.37,11.37,0,0,1-9,15.437,5.174,5.174,0,0,0-4.374,4.374,11.372,11.372,0,0,1-15.442,9,5.383,5.383,0,0,0-6.166,1.706,11.371,11.371,0,0,1-17.708,0,5.391,5.391,0,0,0-6.166-1.706,11.372,11.372,0,0,1-15.442-9,5.174,5.174,0,0,0-4.374-4.374,11.37,11.37,0,0,1-9-15.437,5.379,5.379,0,0,0-1.706-6.166,11.371,11.371,0,0,1,0-17.708,5.388,5.388,0,0,0,1.706-6.166,11.37,11.37,0,0,1,9-15.437A5.174,5.174,0,0,0,31.856,27.5a11.37,11.37,0,0,1,15.437-9,5.386,5.386,0,0,0,6.166-1.706,11.371,11.371,0,0,1,17.708,0A5.388,5.388,0,0,0,77.333,18.5a11.372,11.372,0,0,1,15.442,9,5.174,5.174,0,0,0,4.374,4.374,11.37,11.37,0,0,1,9,15.437,5.379,5.379,0,0,0,1.706,6.166,11.371,11.371,0,0,1,0,17.708ZM94.3,53.275A11.862,11.862,0,0,0,95.591,47.9a1.594,1.594,0,0,0-3.187,0,8.794,8.794,0,0,1-6.828,8.559h-.005a8.74,8.74,0,0,1-8.594-2.816,1.593,1.593,0,0,0-2.678.438,12.934,12.934,0,0,1-23.96,0,1.575,1.575,0,0,0-1.217-.967,1.6,1.6,0,0,0-1.461.529,8.751,8.751,0,0,1-8.594,2.816h-.005A8.8,8.8,0,0,1,32.233,47.9a1.594,1.594,0,1,0-3.187,0,11.928,11.928,0,0,0,1.288,5.377,28.436,28.436,0,0,0-6.476,12.668,3.654,3.654,0,0,0,.855,3.172,3.543,3.543,0,0,0,2.994,1.176,27.4,27.4,0,0,0,8.645-2.459c-.137,2.668-.244,5.305-.311,7.887A21.181,21.181,0,0,0,57.206,97.453H67.42A21.181,21.181,0,0,0,88.585,75.718c-.066-2.581-.173-5.219-.311-7.887a27.384,27.384,0,0,0,8.645,2.454,3.545,3.545,0,0,0,2.994-1.171,3.654,3.654,0,0,0,.855-3.172,28.538,28.538,0,0,0-6.476-12.668ZM27.417,67.118a.429.429,0,0,1-.428-.53,24.946,24.946,0,0,1,5.244-10.6A12.189,12.189,0,0,0,33.273,57a14.994,14.994,0,0,0-3.248,4.19,1.592,1.592,0,1,0,2.831,1.456,11.875,11.875,0,0,1,3.238-3.854c.275.127.56.239.845.341q-.2,2.528-.361,5.025a24.958,24.958,0,0,1-9.164,2.958ZM62.574,86.4a.308.308,0,0,1-.489,0,19.6,19.6,0,0,1-2.49-3.243,26.475,26.475,0,0,1,5.463,0,19.329,19.329,0,0,1-2.49,3.243Zm17.733,2.439a17.843,17.843,0,0,1-12.871,5.428H63.923V89.3a3.444,3.444,0,0,0,.937-.672,22.979,22.979,0,0,0,3.595-4.974,2.385,2.385,0,0,0,.031-2.179,2.442,2.442,0,0,0-1.8-1.308,28.982,28.982,0,0,0-8.7,0,2.433,2.433,0,0,0-1.8,1.308,2.37,2.37,0,0,0,.031,2.179,22.978,22.978,0,0,0,3.595,4.974,3.555,3.555,0,0,0,.937.672v4.974H57.238A18.008,18.008,0,0,1,39.25,75.794c.127-5.158.417-10.524.845-15.972a11.851,11.851,0,0,0,8.319-2.5,16.116,16.116,0,0,0,27.851,0,11.9,11.9,0,0,0,8.319,2.5c.428,5.438.713,10.8.845,15.972a17.9,17.9,0,0,1-5.117,13.05ZM97.561,66.985a.374.374,0,0,1-.321.127,24.96,24.96,0,0,1-9.164-2.958c-.107-1.665-.224-3.34-.362-5.025.285-.107.57-.219.845-.341A11.877,11.877,0,0,1,91.8,62.642a1.592,1.592,0,0,0,2.831-1.456A14.847,14.847,0,0,0,91.38,57a12.2,12.2,0,0,0,1.039-1.013,25,25,0,0,1,5.244,10.6.444.444,0,0,1-.107.4Zm-57.5-25.3a1.593,1.593,0,0,1,1.594-1.594,5.643,5.643,0,0,0,4.256-1.95,1.593,1.593,0,0,1,2.678.438,8.5,8.5,0,0,0,7.9,5.31,1.594,1.594,0,0,1,0,3.187,11.657,11.657,0,0,1-9.837-5.356,8.8,8.8,0,0,1-4.995,1.553,1.593,1.593,0,0,1-1.594-1.594ZM76.347,40.23a1.592,1.592,0,0,1,2.4-2.088,5.625,5.625,0,0,0,4.256,1.95,1.594,1.594,0,1,1,0,3.187,8.813,8.813,0,0,1-6.665-3.05Z" transform="translate(-9.367 -9.371)" fill="#707070"/>
      </g>
      <path id="Trazado_10" data-name="Trazado 10" d="M35.668,23.492v.469A5.735,5.735,0,0,1,38.1,24.6a.819.819,0,0,1,.314,1.144.707.707,0,0,1-1.017.344,4.118,4.118,0,0,0-1.723-.5v3.1c2.758.737,3.431,1.613,3.431,3.211v.046c0,2.287-1.519,2.993-3.431,3.117v.674a.585.585,0,0,1-1.158,0v-.674a7.365,7.365,0,0,1-3.009-.861.844.844,0,0,1-.251-1.222A.8.8,0,0,1,32.4,32.7a5.657,5.657,0,0,0,2.115.722V30.212c-1.49-.361-3.291-.94-3.291-3.2v-.2c0-1.222.784-2.615,3.291-2.835V23.49a.584.584,0,0,1,1.156,0ZM33.148,26.75v.189c0,.909.392,1.175,1.364,1.473V25.623c-1.021.11-1.364.581-1.364,1.127Zm2.521,6.689c1.112-.125,1.473-.72,1.473-1.316v-.079c0-.72-.141-1.175-1.473-1.55Z" transform="translate(6.127 33.352)" fill="#707070"/>
      <path id="Trazado_13" data-name="Trazado 13" d="M35.668,23.492v.469A5.735,5.735,0,0,1,38.1,24.6a.819.819,0,0,1,.314,1.144.707.707,0,0,1-1.017.344,4.118,4.118,0,0,0-1.723-.5v3.1c2.758.737,3.431,1.613,3.431,3.211v.046c0,2.287-1.519,2.993-3.431,3.117v.674a.585.585,0,0,1-1.158,0v-.674a7.365,7.365,0,0,1-3.009-.861.844.844,0,0,1-.251-1.222A.8.8,0,0,1,32.4,32.7a5.657,5.657,0,0,0,2.115.722V30.212c-1.49-.361-3.291-.94-3.291-3.2v-.2c0-1.222.784-2.615,3.291-2.835V23.49a.584.584,0,0,1,1.156,0ZM33.148,26.75v.189c0,.909.392,1.175,1.364,1.473V25.623c-1.021.11-1.364.581-1.364,1.127Zm2.521,6.689c1.112-.125,1.473-.72,1.473-1.316v-.079c0-.72-.141-1.175-1.473-1.55Z" transform="translate(29.588 33.352)" fill="#707070"/>
    </g>
    <g id="Grupo_25" data-name="Grupo 25" transform="translate(20.351 11.13)" opacity="0.516">
      <path id="Trazado_3" data-name="Trazado 3" d="M106.06,29.108h-.028a9.155,9.155,0,0,1-9.142-9.142V16h-.22v3.965a9.155,9.155,0,0,1-9.142,9.142H87.5v.22h.028a9.155,9.155,0,0,1,9.142,9.142v3.965h.22V38.471a9.155,9.155,0,0,1,9.142-9.142h.028Z" transform="translate(-87.5 -16)" fill="#707070"/>
    </g>
    <g id="Grupo_26" data-name="Grupo 26" transform="translate(120.23 18.558)" opacity="0.516">
      <path id="Trazado_3-2" data-name="Trazado 3" d="M100.845,25.425h-.02a6.583,6.583,0,0,1-6.574-6.574V16h-.158v2.851a6.583,6.583,0,0,1-6.574,6.574H87.5v.158h.02a6.583,6.583,0,0,1,6.574,6.574v2.851h.158V32.157a6.583,6.583,0,0,1,6.574-6.574h.02Z" transform="translate(-87.5 -16)" fill="#707070"/>
    </g>
    <g id="Grupo_27" data-name="Grupo 27" transform="translate(30.976 128.808)" opacity="0.516">
      <path id="Trazado_3-3" data-name="Trazado 3" d="M95.435,21.6h-.012A3.914,3.914,0,0,1,91.515,17.7V16h-.094v1.7A3.914,3.914,0,0,1,87.512,21.6H87.5V21.7h.012a3.914,3.914,0,0,1,3.909,3.909v1.7h.094v-1.7A3.914,3.914,0,0,1,95.423,21.7h.012Z" transform="translate(-87.5 -16)" fill="#707070"/>
    </g>
  </g>
</svg>
