<svg xmlns="http://www.w3.org/2000/svg" width="25.588" height="28.789" viewBox="0 0 25.588 28.789">
  <path id="call" d="M25.184,23.728l-.05-.038s-3.109-2.08-4.487-3.011a2.846,2.846,0,0,0-1.6-.541,1.983,1.983,0,0,0-1.228.4l-.059.057a9.017,9.017,0,0,1-.83.772,1.487,1.487,0,0,1-2.009-.218c-.819-.765-5.364-6.4-6.787-8.314A1.4,1.4,0,0,1,7.8,11.763c.113-.687.929-1.253,1.368-1.557l.155-.108a2.129,2.129,0,0,0,.692-2.488c-.186-.491-2.025-4.44-2.247-4.881A1.778,1.778,0,0,0,6.048,1.608a6.2,6.2,0,0,0-3.086.927l-.219.152A4.877,4.877,0,0,0,.207,6.829c0,3.034,2.256,7.543,6.9,13.785,4.963,6.673,10.872,9.783,13.3,9.783,2.229,0,4.385-2.739,5.079-4.066a2.093,2.093,0,0,0-.3-2.6Z" transform="translate(-0.207 -1.608)" fill="#eb2a82"/>
</svg>
