<svg xmlns="http://www.w3.org/2000/svg" width="27.25" height="31.143" viewBox="0 0 27.25 31.143">
  <path id="trash-2-f" d="M30.277,3.893H23.465V2.871A2.846,2.846,0,0,0,20.594,0H14.657a2.846,2.846,0,0,0-2.871,2.871V3.893H4.973a.973.973,0,1,0,0,1.946h1.8L8.136,27.834a3.385,3.385,0,0,0,3.358,3.309h12.36a3.451,3.451,0,0,0,3.358-3.309L28.477,5.839h1.8a.973.973,0,1,0,0-1.946ZM13.732,2.871a.957.957,0,0,1,.925-.925h5.937a.957.957,0,0,1,.925.925V3.893H13.732Zm.049,24.379h-.049a.966.966,0,0,1-.973-.925L11.786,8.808a.974.974,0,0,1,1.946-.1l.973,17.518A.976.976,0,0,1,13.781,27.25Zm4.817-.973a.973.973,0,1,1-1.946,0V8.759a.973.973,0,1,1,1.946,0Zm3.893.049a.966.966,0,0,1-.973.925h-.049a1.011,1.011,0,0,1-.925-1.022L21.518,8.71a.974.974,0,0,1,1.946.1Z" transform="translate(-4)" fill="#202020"/>
</svg>
