<svg xmlns="http://www.w3.org/2000/svg" width="26.602" height="26.602" viewBox="0 0 26.602 26.602">
  <path id="user-female" d="M13.3,3.415a13.3,13.3,0,1,0,13.3,13.3,13.3,13.3,0,0,0-13.3-13.3Zm8.2,22.31c-2.26-.894-5.434-1.878-5.434-2.082V22.535a14.579,14.579,0,0,1,2.494-.346,2.634,2.634,0,0,0,2.494-1.1,21.946,21.946,0,0,1-2.216-8.08l-.015.005a5.534,5.534,0,0,0-11.052,0l-.016-.005a21.972,21.972,0,0,1-2.216,8.08,2.637,2.637,0,0,0,2.494,1.1,19.614,19.614,0,0,1,2.494.253v1.2c0,.208-3.246,1.142-5.5,2.019a12.191,12.191,0,1,1,16.477.063Z" transform="translate(0 -3.415)"/>
</svg>
