<svg id="server" xmlns="http://www.w3.org/2000/svg" width="24.524" height="28.026" viewBox="0 0 24.524 28.026">
  <path id="Trazado_26" data-name="Trazado 26" d="M13,12.5c7.226,0,12.262-2.77,12.262-5.255S20.227,1.987,13,1.987.738,4.756.738,7.242,5.774,12.5,13,12.5Z" transform="translate(-0.738 -1.987)"/>
  <path id="Trazado_27" data-name="Trazado 27" d="M.738,21.538v3.221c0,2.485,5.036,5.254,12.262,5.254s12.262-2.769,12.262-5.254V21.538c-2.1,2.241-6.8,3.8-12.262,3.8S2.834,23.779.738,21.538Z" transform="translate(-0.738 -1.987)"/>
  <path id="Trazado_28" data-name="Trazado 28" d="M.738,15.7v3.221c0,2.485,5.036,5.254,12.262,5.254s12.262-2.769,12.262-5.254V15.7c-2.1,2.241-6.8,3.8-12.262,3.8S2.834,17.941.738,15.7Z" transform="translate(-0.738 -1.987)"/>
  <path id="Trazado_29" data-name="Trazado 29" d="M.738,9.861v3.221c0,2.484,5.036,5.254,12.262,5.254s12.262-2.77,12.262-5.254V9.861c-2.1,2.241-6.8,3.8-12.262,3.8S2.834,12.1.738,9.861Z" transform="translate(-0.738 -1.987)"/>
</svg>
