<?xml version="1.0" encoding="UTF-8"?>
<svg id="X-_icon" data-name="X- icon" xmlns="http://www.w3.org/2000/svg" viewBox="0 0 33 33">
  <g id="Rectangle_107" data-name="Rectangle 107">
    <path d="M29.5,32.5H3.5c-1.7,0-3-1.3-3-3V3.5C.5,1.8,1.8.5,3.5.5h26c1.7,0,3,1.3,3,3v26c0,1.7-1.3,3-3,3ZM3.5,2.5c-.6,0-1,.4-1,1v26c0,.6.4,1,1,1h26c.6,0,1-.4,1-1V3.5c0-.6-.4-1-1-1H3.5Z" style="fill: none; stroke: #fff; stroke-miterlimit: 10;"/>
  </g>
  <path d="M10.68,9.67l8.91,12.74h1.92l-8.88-12.74h1.24l3.03,4.4,3.8-4.4h1.25l-4.48,5.24,5.76,8.4h-4.25l-3.88-5.63-.03-.02-4.8,5.58s-.05.06-.08.07c-.13.02-.32-.02-.46,0v-.93l4.79-5.55-4.79-6.95v-.21h.93Z" style="fill: #fff;"/>
</svg>