<svg xmlns="http://www.w3.org/2000/svg" width="67.757" height="63.094" viewBox="0 0 67.757 63.094"><path fill="#eb2a82" fill-rule="evenodd" d="m13.448 56.304 16.962 6.058a12.56 12.56 0 0 0 8.193.088c6.747-2.249 20.827-6.943 26.817-8.938a3.412 3.412 0 0 0 1.761-5.135l-.219-.333a4.55 4.55 0 0 0-4.887-1.89l-15.287 3.824v-2.229A3.793 3.793 0 0 0 43 43.958H30.465l-1.682-3.37a5.4 5.4 0 0 0-4.828-2.985H13.448v-2a1.166 1.166 0 0 0-1.168-1.168H1.168A1.166 1.166 0 0 0 0 35.601v22.226a1.17 1.17 0 0 0 1.168 1.168h11.111a1.17 1.17 0 0 0 1.168-1.168Zm0-16.366v13.886L31.2 60.162a10.22 10.22 0 0 0 6.666.073l26.817-8.941a1.08 1.08 0 0 0 .558-1.624l-.219-.333a2.21 2.21 0 0 0-2.378-.917L45.93 52.6a1 1 0 0 1-.169.032h-.006a1 1 0 0 1-.158.006H29.743a1.169 1.169 0 0 1 0-2.337H44.45v-2.556A1.455 1.455 0 0 0 43 46.288H29.743a1.17 1.17 0 0 1-1.046-.648l-2-4.01a3.07 3.07 0 0 0-2.74-1.694Zm-2.337 14.684V36.763H2.337v19.889h8.774ZM45.557 0A19.862 19.862 0 1 0 65.42 19.862 19.87 19.87 0 0 0 45.557 0m0 2.337a17.526 17.526 0 1 1-17.526 17.526A17.536 17.536 0 0 1 45.557 2.337M37.5 16.388h-2.458a1.169 1.169 0 1 0 0 2.337h1.966a11.7 11.7 0 0 0 0 2.278h-1.966a1.169 1.169 0 1 0 0 2.337H37.5a11.17 11.17 0 0 0 15.773 6.432 1.167 1.167 0 1 0-1.073-2.073A8.836 8.836 0 0 1 40 23.338h5.813a1.169 1.169 0 0 0 0-2.337H39.36a9 9 0 0 1 0-2.278h6.452a1.169 1.169 0 0 0 0-2.337H40a8.836 8.836 0 0 1 12.2-4.361 1.167 1.167 0 1 0 1.078-2.071A11.17 11.17 0 0 0 37.5 16.388" data-name="Trazado 14"/></svg>