<svg xmlns="http://www.w3.org/2000/svg" width="57.743" height="78.194" data-name="Grupo 12" viewBox="0 0 57.743 78.194"><path fill="#eb2a82" fill-rule="evenodd" d="M11.46 5.788 25.916.623A10.7 10.7 0 0 1 32.9.549c5.75 1.917 17.749 5.917 22.854 7.617a2.908 2.908 0 0 1 1.5 4.376l-.187.284a3.875 3.875 0 0 1-4.167 1.61l-13.027-3.258v1.9a3.23 3.23 0 0 1-3.231 3.231H25.963l-1.434 2.87a4.6 4.6 0 0 1-4.115 2.544H11.46v1.708a.994.994 0 0 1-1 1H1a.994.994 0 0 1-1-1V4.488a1 1 0 0 1 1-1h9.469a1 1 0 0 1 1 1Zm0 13.947V7.9l15.127-5.4a8.7 8.7 0 0 1 5.68-.062l22.854 7.62a.92.92 0 0 1 .475 1.384l-.187.284a1.885 1.885 0 0 1-2.026.782L39.14 8.943a1 1 0 0 0-.144-.027 1 1 0 0 0-.134 0H25.347a1 1 0 1 0 0 1.991h12.534v2.178a1.24 1.24 0 0 1-1.24 1.24H25.347a1 1 0 0 0-.891.553l-1.708 3.41a2.61 2.61 0 0 1-2.335 1.444ZM9.469 7.22v15.219H1.991V5.488h7.477Zm29.355 46.549a16.927 16.927 0 1 1 16.927-16.927 16.935 16.935 0 0 1-16.927 16.927m0-1.991a14.936 14.936 0 1 0-14.935-14.936 14.944 14.944 0 0 0 14.935 14.935Zm-6.865-11.974h-2.1a1 1 0 0 1 0-1.991h1.675a10 10 0 0 1 0-1.942h-1.671a1 1 0 0 1 0-1.991h2.1A9.52 9.52 0 0 1 45.4 28.399a.995.995 0 1 1-.919 1.765 7.53 7.53 0 0 0-10.395 3.716h4.954a1 1 0 1 1 0 1.991h-5.5a7.6 7.6 0 0 0 0 1.942h5.5a1 1 0 1 1 0 1.991h-4.952a7.53 7.53 0 0 0 10.395 3.716.996.996 0 1 1 .917 1.768 9.52 9.52 0 0 1-13.442-5.481Z" data-name="Trazado 15"/><path fill="#eb2a82" fill-rule="evenodd" d="m46.283 72.41-14.455 5.161a10.7 10.7 0 0 1-6.982.075C19.1 75.729 7.1 71.729 1.992 70.029a2.908 2.908 0 0 1-1.5-4.376l.187-.284a3.875 3.875 0 0 1 4.165-1.611l13.026 3.259v-1.9a3.23 3.23 0 0 1 3.23-3.23h10.68l1.434-2.87a4.6 4.6 0 0 1 4.115-2.544h8.954v-1.708a.994.994 0 0 1 1-1h9.469a.994.994 0 0 1 1 1V73.71a1 1 0 0 1-1 1h-9.473a1 1 0 0 1-1-1Zm0-13.947v11.832l-15.127 5.4a8.7 8.7 0 0 1-5.68.062L2.622 68.139a.92.92 0 0 1-.475-1.384l.187-.284a1.885 1.885 0 0 1 2.026-.782l14.24 3.563a1 1 0 0 0 .144.027 1 1 0 0 0 .134 0H32.4a1 1 0 1 0 0-1.991H19.863V65.11a1.24 1.24 0 0 1 1.24-1.24H32.4a1 1 0 0 0 .891-.553l1.708-3.418a2.61 2.61 0 0 1 2.335-1.444Zm1.991 12.514V55.755h7.477v16.95h-7.477Z" data-name="Trazado 14"/></svg>