<svg xmlns="http://www.w3.org/2000/svg" width="25.588" height="28.789" viewBox="0 0 25.588 28.789"><path fill="#eb2a82" d="m24.977 22.12-.05-.038s-3.109-2.08-4.487-3.011a2.85 2.85 0 0 0-1.6-.541 2 2 0 0 0-1.228.4l-.059.057a9 9 0 0 1-.83.772 1.487 1.487 0 0 1-2.009-.218c-.819-.765-5.364-6.4-6.787-8.314a1.4 1.4 0 0 1-.334-1.072c.113-.687.929-1.253 1.368-1.557l.155-.108a2.13 2.13 0 0 0 .692-2.488c-.186-.491-2.025-4.44-2.247-4.881A1.78 1.78 0 0 0 5.841 0a6.2 6.2 0 0 0-3.086.927l-.219.152A4.88 4.88 0 0 0 0 5.221c0 3.034 2.256 7.543 6.9 13.785 4.963 6.673 10.872 9.783 13.3 9.783 2.229 0 4.385-2.739 5.079-4.066a2.09 2.09 0 0 0-.3-2.6Z"/></svg>