<svg xmlns="http://www.w3.org/2000/svg" width="104" height="104" viewBox="0 0 104 104">
  <g id="Grupo_77" data-name="Grupo 77" transform="translate(0.462)">
    <rect id="Rectángulo_15" data-name="Rectángulo 15" width="104" height="104" rx="25" transform="translate(-0.462)" fill="#eb2a82"/>
    <g id="Grupo_21" data-name="Grupo 21" transform="translate(16.894 16.894)">
      <g id="Grupo_1" data-name="Grupo 1" transform="translate(0)">
        <path id="Trazado_1" data-name="Trazado 1" d="M76.231,37.07a1.477,1.477,0,0,1-.495-1.68,9.681,9.681,0,0,0-7.66-13.145,1.315,1.315,0,0,1-1.111-1.111,9.681,9.681,0,0,0-13.145-7.66,1.474,1.474,0,0,1-1.68-.495,9.678,9.678,0,0,0-15.075,0,1.477,1.477,0,0,1-1.68.495,9.681,9.681,0,0,0-13.145,7.66,1.315,1.315,0,0,1-1.111,1.111,9.681,9.681,0,0,0-7.66,13.145,1.474,1.474,0,0,1-.495,1.68,9.678,9.678,0,0,0,0,15.075,1.477,1.477,0,0,1,.495,1.68A9.681,9.681,0,0,0,21.13,66.97a1.315,1.315,0,0,1,1.111,1.111,9.681,9.681,0,0,0,13.145,7.66,1.479,1.479,0,0,1,1.68.495,9.678,9.678,0,0,0,15.075,0,1.472,1.472,0,0,1,1.68-.495,9.681,9.681,0,0,0,13.145-7.66,1.315,1.315,0,0,1,1.111-1.111,9.681,9.681,0,0,0,7.66-13.145,1.474,1.474,0,0,1,.495-1.68,9.678,9.678,0,0,0,0-15.075ZM74.9,50.5a3.585,3.585,0,0,0-1.135,4.1,7.565,7.565,0,0,1-5.986,10.272,3.442,3.442,0,0,0-2.91,2.91,7.567,7.567,0,0,1-10.275,5.986,3.582,3.582,0,0,0-4.1,1.135,7.566,7.566,0,0,1-11.783,0,3.587,3.587,0,0,0-4.1-1.135,7.567,7.567,0,0,1-10.275-5.986,3.442,3.442,0,0,0-2.91-2.91A7.565,7.565,0,0,1,15.435,54.6,3.579,3.579,0,0,0,14.3,50.5a7.566,7.566,0,0,1,0-11.783,3.585,3.585,0,0,0,1.135-4.1,7.565,7.565,0,0,1,5.986-10.272,3.442,3.442,0,0,0,2.91-2.91A7.565,7.565,0,0,1,34.6,15.445a3.584,3.584,0,0,0,4.1-1.135,7.566,7.566,0,0,1,11.783,0,3.585,3.585,0,0,0,4.1,1.135,7.567,7.567,0,0,1,10.275,5.986,3.442,3.442,0,0,0,2.91,2.91,7.565,7.565,0,0,1,5.986,10.272,3.579,3.579,0,0,0,1.135,4.1,7.566,7.566,0,0,1,0,11.783ZM65.882,38.584a7.893,7.893,0,0,0,.857-3.577,1.06,1.06,0,0,0-2.121,0A5.851,5.851,0,0,1,60.075,40.7h0a5.816,5.816,0,0,1-5.719-1.873,1.06,1.06,0,0,0-1.782.291,8.606,8.606,0,0,1-15.943,0,1.048,1.048,0,0,0-.81-.644,1.066,1.066,0,0,0-.972.352A5.823,5.823,0,0,1,29.128,40.7h0a5.854,5.854,0,0,1-4.543-5.695,1.06,1.06,0,1,0-2.121,0,7.937,7.937,0,0,0,.857,3.577,18.921,18.921,0,0,0-4.309,8.429,2.432,2.432,0,0,0,.569,2.111,2.357,2.357,0,0,0,1.992.783,18.23,18.23,0,0,0,5.752-1.636c-.091,1.775-.163,3.53-.207,5.248A14.094,14.094,0,0,0,41.2,67.979h6.8A14.094,14.094,0,0,0,62.077,53.517c-.044-1.718-.115-3.472-.207-5.248A18.221,18.221,0,0,0,67.623,49.9a2.359,2.359,0,0,0,1.992-.779,2.432,2.432,0,0,0,.569-2.111,18.989,18.989,0,0,0-4.309-8.429ZM21.378,47.8a.286.286,0,0,1-.285-.352,16.6,16.6,0,0,1,3.489-7.053,8.111,8.111,0,0,0,.691.674,9.977,9.977,0,0,0-2.161,2.788A1.059,1.059,0,1,0,25,44.821a7.9,7.9,0,0,1,2.155-2.564c.183.085.373.159.562.227q-.132,1.682-.241,3.344a16.606,16.606,0,0,1-6.1,1.968ZM44.77,60.628a.205.205,0,0,1-.325,0,13.042,13.042,0,0,1-1.657-2.158,17.616,17.616,0,0,1,3.635,0,12.861,12.861,0,0,1-1.657,2.158Zm11.8,1.623a11.872,11.872,0,0,1-8.564,3.611H45.668v-3.31a2.291,2.291,0,0,0,.623-.447,15.29,15.29,0,0,0,2.392-3.31,1.587,1.587,0,0,0,.02-1.45,1.625,1.625,0,0,0-1.2-.871,19.285,19.285,0,0,0-5.79,0,1.619,1.619,0,0,0-1.2.871,1.577,1.577,0,0,0,.02,1.45,15.289,15.289,0,0,0,2.392,3.31,2.365,2.365,0,0,0,.623.447v3.31H41.22A11.982,11.982,0,0,1,29.251,53.568c.085-3.432.278-7,.562-10.627a7.886,7.886,0,0,0,5.536-1.663,10.724,10.724,0,0,0,18.532,0,7.918,7.918,0,0,0,5.536,1.663c.285,3.618.474,7.189.562,10.627a11.913,11.913,0,0,1-3.4,8.683ZM68.05,47.707a.249.249,0,0,1-.213.085,16.608,16.608,0,0,1-6.1-1.968c-.071-1.108-.149-2.222-.241-3.344.19-.071.379-.146.562-.227a7.9,7.9,0,0,1,2.155,2.564,1.059,1.059,0,0,0,1.884-.969,9.879,9.879,0,0,0-2.161-2.788,8.117,8.117,0,0,0,.691-.674,16.637,16.637,0,0,1,3.489,7.053.3.3,0,0,1-.071.264ZM29.794,30.873a1.06,1.06,0,0,1,1.06-1.06,3.755,3.755,0,0,0,2.832-1.3,1.06,1.06,0,0,1,1.782.291,5.653,5.653,0,0,0,5.254,3.533,1.06,1.06,0,0,1,0,2.121A7.756,7.756,0,0,1,34.177,30.9a5.854,5.854,0,0,1-3.323,1.033,1.06,1.06,0,0,1-1.06-1.06ZM53.935,29.9a1.059,1.059,0,0,1,1.6-1.389,3.743,3.743,0,0,0,2.832,1.3,1.06,1.06,0,1,1,0,2.121A5.864,5.864,0,0,1,53.931,29.9Z" transform="translate(-9.367 -9.371)" fill="#fff"/>
      </g>
      <path id="Trazado_10" data-name="Trazado 10" d="M34.138,23.324v.312a3.816,3.816,0,0,1,1.616.428.545.545,0,0,1,.209.761.47.47,0,0,1-.677.229,2.74,2.74,0,0,0-1.147-.334v2.064c1.835.49,2.283,1.074,2.283,2.137v.031c0,1.522-1.011,1.992-2.283,2.074v.448a.389.389,0,0,1-.771,0v-.448a4.9,4.9,0,0,1-2-.573.562.562,0,0,1-.167-.813.532.532,0,0,1,.761-.188,3.764,3.764,0,0,0,1.407.48V27.8c-.991-.24-2.189-.625-2.189-2.127v-.136c0-.813.521-1.74,2.189-1.886v-.324a.389.389,0,0,1,.769,0Zm-1.677,2.168v.126c0,.6.261.782.908.98V24.741c-.679.073-.908.386-.908.75Zm1.677,4.451c.74-.083.98-.479.98-.876v-.053c0-.479-.094-.782-.98-1.031Z" transform="translate(-6.328 14.499)" fill="#fff"/>
      <path id="Trazado_13" data-name="Trazado 13" d="M34.138,23.324v.312a3.816,3.816,0,0,1,1.616.428.545.545,0,0,1,.209.761.47.47,0,0,1-.677.229,2.74,2.74,0,0,0-1.147-.334v2.064c1.835.49,2.283,1.074,2.283,2.137v.031c0,1.522-1.011,1.992-2.283,2.074v.448a.389.389,0,0,1-.771,0v-.448a4.9,4.9,0,0,1-2-.573.562.562,0,0,1-.167-.813.532.532,0,0,1,.761-.188,3.764,3.764,0,0,0,1.407.48V27.8c-.991-.24-2.189-.625-2.189-2.127v-.136c0-.813.521-1.74,2.189-1.886v-.324a.389.389,0,0,1,.769,0Zm-1.677,2.168v.126c0,.6.261.782.908.98V24.741c-.679.073-.908.386-.908.75Zm1.677,4.451c.74-.083.98-.479.98-.876v-.053c0-.479-.094-.782-.98-1.031Z" transform="translate(9.283 14.499)" fill="#fff"/>
    </g>
    <g id="Grupo_25" data-name="Grupo 25" transform="translate(13.387 7.406)">
      <path id="Trazado_3" data-name="Trazado 3" d="M99.85,24.722h-.018a6.092,6.092,0,0,1-6.083-6.083V16H93.6v2.639a6.092,6.092,0,0,1-6.083,6.083H87.5v.147h.018A6.092,6.092,0,0,1,93.6,30.952V33.59h.147V30.952a6.092,6.092,0,0,1,6.083-6.083h.018Z" transform="translate(-87.5 -16)" fill="#fff"/>
    </g>
    <g id="Grupo_26" data-name="Grupo 26" transform="translate(79.844 12.348)">
      <path id="Trazado_3-2" data-name="Trazado 3" d="M96.38,22.271h-.013A4.38,4.38,0,0,1,91.992,17.9V16h-.105v1.9a4.38,4.38,0,0,1-4.374,4.374H87.5v.105h.013a4.38,4.38,0,0,1,4.374,4.374v1.9h.105v-1.9a4.38,4.38,0,0,1,4.374-4.374h.013Z" transform="translate(-87.5 -16)" fill="#fff"/>
    </g>
    <g id="Grupo_27" data-name="Grupo 27" transform="translate(20.457 85.707)">
      <path id="Trazado_3-3" data-name="Trazado 3" d="M92.78,19.729h-.008a2.6,2.6,0,0,1-2.6-2.6V16h-.063v1.128a2.6,2.6,0,0,1-2.6,2.6H87.5v.063h.008a2.6,2.6,0,0,1,2.6,2.6V23.52h.063V22.392a2.6,2.6,0,0,1,2.6-2.6h.008Z" transform="translate(-87.5 -16)" fill="#fff"/>
    </g>
  </g>
</svg>
