<svg xmlns="http://www.w3.org/2000/svg" width="24.524" height="28.026" viewBox="0 0 24.524 28.026"><path d="M12.262 10.513c7.226 0 12.262-2.77 12.262-5.255S19.489 0 12.262 0 0 2.769 0 5.255s5.036 5.258 12.262 5.258" data-name="Trazado 26"/><path d="M0 19.551v3.221c0 2.485 5.036 5.254 12.262 5.254s12.262-2.769 12.262-5.254v-3.221c-2.1 2.241-6.8 3.8-12.262 3.8S2.096 21.792 0 19.551" data-name="Trazado 27"/><path d="M0 13.713v3.221c0 2.485 5.036 5.254 12.262 5.254s12.262-2.769 12.262-5.254v-3.221c-2.1 2.241-6.8 3.8-12.262 3.8S2.096 15.954 0 13.713" data-name="Trazado 28"/><path d="M0 7.874v3.221c0 2.484 5.036 5.254 12.262 5.254s12.262-2.77 12.262-5.254V7.874c-2.1 2.241-6.8 3.8-12.262 3.8S2.096 10.113 0 7.874" data-name="Trazado 29"/></svg>