<svg xmlns="http://www.w3.org/2000/svg" width="75.337" height="85.821" viewBox="0 0 75.337 85.821"><g data-name="Grupo 86"><g data-name="Grupo 21"><g data-name="Grupo 1"><path d="M70.371 37.187a1.48 1.48 0 0 1-.495-1.68 9.68 9.68 0 0 0-7.66-13.145 1.315 1.315 0 0 1-1.111-1.111 9.68 9.68 0 0 0-13.145-7.66 1.47 1.47 0 0 1-1.68-.495 9.678 9.678 0 0 0-15.075 0 1.48 1.48 0 0 1-1.68.495 9.68 9.68 0 0 0-13.145 7.66 1.315 1.315 0 0 1-1.111 1.111 9.68 9.68 0 0 0-7.66 13.145 1.47 1.47 0 0 1-.495 1.68 9.678 9.678 0 0 0 0 15.075 1.48 1.48 0 0 1 .495 1.68 9.68 9.68 0 0 0 7.661 13.145 1.315 1.315 0 0 1 1.111 1.111 9.68 9.68 0 0 0 13.145 7.66 1.48 1.48 0 0 1 1.68.495 9.678 9.678 0 0 0 15.075 0 1.47 1.47 0 0 1 1.68-.495 9.68 9.68 0 0 0 13.145-7.66 1.315 1.315 0 0 1 1.111-1.111 9.68 9.68 0 0 0 7.66-13.145 1.47 1.47 0 0 1 .495-1.68 9.678 9.678 0 0 0 0-15.075Zm-1.331 13.43a3.585 3.585 0 0 0-1.135 4.1 7.565 7.565 0 0 1-5.986 10.272 3.44 3.44 0 0 0-2.91 2.91 7.567 7.567 0 0 1-10.275 5.986 3.58 3.58 0 0 0-4.1 1.135 7.566 7.566 0 0 1-11.783 0 3.59 3.59 0 0 0-4.1-1.135 7.567 7.567 0 0 1-10.275-5.986 3.44 3.44 0 0 0-2.91-2.91 7.565 7.565 0 0 1-5.991-10.272 3.58 3.58 0 0 0-1.135-4.1 7.566 7.566 0 0 1 0-11.783 3.585 3.585 0 0 0 1.135-4.1 7.565 7.565 0 0 1 5.986-10.272 3.44 3.44 0 0 0 2.91-2.91 7.565 7.565 0 0 1 10.269-5.99 3.58 3.58 0 0 0 4.1-1.135 7.566 7.566 0 0 1 11.783 0 3.585 3.585 0 0 0 4.1 1.135 7.567 7.567 0 0 1 10.275 5.986 3.44 3.44 0 0 0 2.91 2.91 7.565 7.565 0 0 1 5.986 10.272 3.58 3.58 0 0 0 1.135 4.1 7.566 7.566 0 0 1 0 11.783Zm-9.018-11.916a7.9 7.9 0 0 0 .857-3.577 1.06 1.06 0 0 0-2.121 0 5.85 5.85 0 0 1-4.543 5.693 5.82 5.82 0 0 1-5.719-1.873 1.06 1.06 0 0 0-1.782.291 8.606 8.606 0 0 1-15.943 0 1.05 1.05 0 0 0-.81-.644 1.07 1.07 0 0 0-.972.352 5.82 5.82 0 0 1-5.721 1.874 5.854 5.854 0 0 1-4.543-5.695 1.06 1.06 0 1 0-2.121 0 7.94 7.94 0 0 0 .857 3.577 18.9 18.9 0 0 0-4.309 8.429 2.43 2.43 0 0 0 .569 2.111 2.36 2.36 0 0 0 1.992.783 18.2 18.2 0 0 0 5.752-1.636c-.091 1.775-.163 3.53-.207 5.248A14.094 14.094 0 0 0 35.34 68.096h6.8a14.094 14.094 0 0 0 14.077-14.462 201 201 0 0 0-.207-5.248 18.2 18.2 0 0 0 5.753 1.631 2.36 2.36 0 0 0 1.992-.779 2.43 2.43 0 0 0 .569-2.111 19 19 0 0 0-4.309-8.429Zm-44.504 9.216a.286.286 0 0 1-.285-.352 16.6 16.6 0 0 1 3.489-7.053 8 8 0 0 0 .691.674 10 10 0 0 0-2.161 2.788 1.06 1.06 0 1 0 1.888.964 7.9 7.9 0 0 1 2.155-2.564q.276.126.562.227-.132 1.682-.241 3.344a16.6 16.6 0 0 1-6.1 1.968ZM38.91 60.745a.205.205 0 0 1-.325 0 13 13 0 0 1-1.657-2.158 17.6 17.6 0 0 1 3.635 0 13 13 0 0 1-1.657 2.158Zm11.8 1.623a11.87 11.87 0 0 1-8.564 3.611h-2.338v-3.31a2.3 2.3 0 0 0 .623-.447 15.3 15.3 0 0 0 2.392-3.31 1.59 1.59 0 0 0 .02-1.45 1.63 1.63 0 0 0-1.2-.871 19.3 19.3 0 0 0-5.79 0 1.62 1.62 0 0 0-1.2.871 1.58 1.58 0 0 0 .02 1.45 15.3 15.3 0 0 0 2.392 3.31 2.4 2.4 0 0 0 .623.447v3.31H35.36a11.98 11.98 0 0 1-11.969-12.294c.085-3.432.278-7 .562-10.627a7.9 7.9 0 0 0 5.536-1.663 10.724 10.724 0 0 0 18.532 0 7.92 7.92 0 0 0 5.536 1.663c.285 3.618.474 7.189.562 10.627a11.9 11.9 0 0 1-3.4 8.683Zm11.48-14.544a.25.25 0 0 1-.213.085 16.6 16.6 0 0 1-6.1-1.968 188 188 0 0 0-.241-3.344q.286-.106.562-.227a7.9 7.9 0 0 1 2.155 2.564 1.06 1.06 0 0 0 1.884-.969 9.9 9.9 0 0 0-2.161-2.788 8 8 0 0 0 .691-.674 16.64 16.64 0 0 1 3.489 7.053.3.3 0 0 1-.071.264ZM23.934 30.99a1.06 1.06 0 0 1 1.06-1.06 3.76 3.76 0 0 0 2.832-1.3 1.06 1.06 0 0 1 1.782.291 5.65 5.65 0 0 0 5.254 3.533 1.06 1.06 0 0 1 0 2.121 7.76 7.76 0 0 1-6.545-3.558 5.85 5.85 0 0 1-3.323 1.033 1.06 1.06 0 0 1-1.06-1.06m24.141-.973a1.06 1.06 0 0 1 1.6-1.389 3.74 3.74 0 0 0 2.832 1.3 1.06 1.06 0 1 1 0 2.121 5.86 5.86 0 0 1-4.436-2.032Z" data-name="Trazado 1"/></g><path d="M31.317 47.311v.312a3.8 3.8 0 0 1 1.616.428.545.545 0 0 1 .209.761.47.47 0 0 1-.677.229 2.74 2.74 0 0 0-1.147-.334v2.064c1.835.49 2.283 1.074 2.283 2.137v.031c0 1.522-1.011 1.992-2.283 2.074v.448a.389.389 0 0 1-.771 0v-.448a4.9 4.9 0 0 1-2-.573.56.56 0 0 1-.167-.813.53.53 0 0 1 .761-.188 3.8 3.8 0 0 0 1.407.48v-2.132c-.991-.24-2.189-.625-2.189-2.127v-.136c0-.813.521-1.74 2.189-1.886v-.324a.389.389 0 0 1 .769 0Zm-1.677 2.168v.126c0 .6.261.782.908.98v-1.857c-.679.073-.908.386-.908.75Zm1.677 4.451c.74-.083.98-.479.98-.876v-.053c0-.479-.094-.782-.98-1.031Z" data-name="Trazado 10"/><path d="M46.928 47.311v.312a3.8 3.8 0 0 1 1.616.428.545.545 0 0 1 .209.761.47.47 0 0 1-.677.229 2.74 2.74 0 0 0-1.147-.334v2.064c1.835.49 2.283 1.074 2.283 2.137v.031c0 1.522-1.011 1.992-2.283 2.074v.448a.389.389 0 0 1-.771 0v-.448a4.9 4.9 0 0 1-2-.573.56.56 0 0 1-.167-.813.53.53 0 0 1 .761-.188 3.8 3.8 0 0 0 1.407.48v-2.132c-.991-.24-2.189-.625-2.189-2.127v-.136c0-.813.521-1.74 2.189-1.886v-.324a.389.389 0 0 1 .769 0Zm-1.677 2.168v.126c0 .6.261.782.908.98v-1.857c-.679.073-.908.386-.908.75Zm1.677 4.451c.74-.083.98-.479.98-.876v-.053c0-.479-.094-.782-.98-1.031Z" data-name="Trazado 13"/></g><g data-name="Grupo 25"><path d="M12.35 8.722h-.018a6.09 6.09 0 0 1-6.083-6.083V0H6.1v2.639A6.09 6.09 0 0 1 .017 8.722H0v.147h.018A6.09 6.09 0 0 1 6.1 14.952v2.638h.147v-2.638a6.09 6.09 0 0 1 6.083-6.083h.018Z" data-name="Trazado 3"/></g><g data-name="Grupo 26"><path d="M75.337 11.213h-.013a4.38 4.38 0 0 1-4.375-4.371v-1.9h-.105v1.9a4.38 4.38 0 0 1-4.374 4.374h-.013v.105h.013a4.38 4.38 0 0 1 4.374 4.374v1.9h.105v-1.9a4.38 4.38 0 0 1 4.374-4.374h.013Z" data-name="Trazado 3"/></g><g data-name="Grupo 27"><path d="M12.35 82.03h-.008a2.6 2.6 0 0 1-2.6-2.6v-1.129h-.063v1.128a2.6 2.6 0 0 1-2.6 2.6H7.07v.063h.008a2.6 2.6 0 0 1 2.6 2.6v1.129h.063v-1.128a2.6 2.6 0 0 1 2.6-2.6h.008Z" data-name="Trazado 3"/></g></g></svg>